<svg xmlns="http://www.w3.org/2000/svg" viewBox="0 0 512 512">
  <defs>
    <linearGradient id="bg" x1="0" y1="0" x2="1" y2="1">
      <stop offset="0%" stop-color="#1d1a16"/>
      <stop offset="100%" stop-color="#363025"/>
    </linearGradient>
  </defs>
  <rect width="512" height="512" rx="96" fill="url(#bg)"/>
  <!-- 바코드 모티프 -->
  <g fill="#fbfaf7">
    <rect x="120" y="160" width="14" height="192" rx="2"/>
    <rect x="148" y="160" width="6" height="192" rx="2"/>
    <rect x="168" y="160" width="20" height="192" rx="2"/>
    <rect x="200" y="160" width="10" height="192" rx="2"/>
    <rect x="222" y="160" width="6" height="192" rx="2"/>
    <rect x="240" y="160" width="14" height="192" rx="2"/>
    <rect x="266" y="160" width="6" height="192" rx="2"/>
    <rect x="284" y="160" width="22" height="192" rx="2"/>
    <rect x="318" y="160" width="6" height="192" rx="2"/>
    <rect x="336" y="160" width="14" height="192" rx="2"/>
    <rect x="362" y="160" width="20" height="192" rx="2"/>
  </g>
  <!-- 스캔 라인 -->
  <rect x="100" y="252" width="312" height="8" rx="4" fill="oklch(68% 0.15 45)" opacity="0.92"/>
  <!-- ₩ 라벨 -->
  <text x="256" y="430" text-anchor="middle" font-family="system-ui, -apple-system, sans-serif"
        font-weight="800" font-size="56" fill="#fbfaf7" letter-spacing="-2">번장</text>
</svg>
